# xmcd CD database file
#
# Track frame offsets:
#	150
#	19569
#	32025
#	50159
#	69032
#	100382
#	136160
#	155807
#	165889
#
# Disc length: 2431 seconds
#
# Revision: 0
# Processed by: cddbd v1.5.2PL0 Copyright (c) Steve Scherf et al.
# Submitted via: CDex 1.51
#
DISCID=6a097d09
DTITLE=Barrett Anderson - All The Way Down
DYEAR=2007
DGENRE=Blues
TTITLE0=Broken Down
TTITLE1=Red's
TTITLE2=Gone
TTITLE3=Jinx Blues
TTITLE4=Woke This Morning
TTITLE5=Still A Fool
TTITLE6=Blind Faith
TTITLE7=Grinnin' In Your Face
TTITLE8=Money (That's What I Want)
EXTD=YEAR: 2007
EXTT0=
EXTT1=
EXTT2=
EXTT3=
EXTT4=
EXTT5=
EXTT6=
EXTT7=
EXTT8=
PLAYORDER=
